<svg width="37" height="35" viewBox="0 0 37 35" fill="none" xmlns="http://www.w3.org/2000/svg">
<path d="M11.3369 34.4582C17.3963 34.4582 22.3085 29.546 22.3085 23.4865C22.3085 17.427 17.3963 12.5149 11.3369 12.5149C5.27741 12.5149 0.365234 17.427 0.365234 23.4865C0.365234 29.546 5.27741 34.4582 11.3369 34.4582Z" fill="#04E061"/>
<path d="M30.37 33.0734C34.0315 33.0734 36.9997 30.1052 36.9997 26.4437C36.9997 22.7821 34.0315 19.814 30.37 19.814C26.7085 19.814 23.7402 22.7821 23.7402 26.4437C23.7402 30.1052 26.7085 33.0734 30.37 33.0734Z" fill="#FF4053"/>
<path d="M13.4346 11.0846C15.7005 11.0846 17.5373 9.24783 17.5373 6.98202C17.5373 4.7162 15.7005 2.87939 13.4346 2.87939C11.1688 2.87939 9.33203 4.7162 9.33203 6.98202C9.33203 9.24783 11.1688 11.0846 13.4346 11.0846Z" fill="#965EEB"/>
<path d="M27.7944 18.3825C32.7209 18.3825 36.7147 14.3887 36.7147 9.46213C36.7147 4.53553 32.7209 0.541748 27.7944 0.541748C22.8678 0.541748 18.874 4.53553 18.874 9.46213C18.874 14.3887 22.8678 18.3825 27.7944 18.3825Z" fill="#00AAFF"/>
</svg>
