<svg width="32" height="33" viewBox="0 0 32 33" fill="none" xmlns="http://www.w3.org/2000/svg">
<path d="M16.0015 0.5C11.6561 0.5 11.1108 0.519 9.4041 0.596667C7.70075 0.674667 6.53807 0.944333 5.52072 1.34C4.46838 1.74867 3.5757 2.29533 2.68636 3.185C1.79635 4.07433 1.24968 4.967 0.839675 6.019C0.443004 7.03667 0.173002 8.19967 0.0963342 9.90233C0.0200001 11.609 0 12.1547 0 16.5C0 20.8453 0.0193338 21.389 0.096668 23.0957C0.175002 24.799 0.444671 25.9617 0.840009 26.979C1.24901 28.0313 1.79569 28.924 2.68536 29.8133C3.57437 30.7033 4.46705 31.2513 5.51872 31.66C6.53673 32.0557 7.69975 32.3253 9.40276 32.4033C11.1094 32.481 11.6545 32.5 15.9995 32.5C20.3452 32.5 20.8889 32.481 22.5956 32.4033C24.2989 32.3253 25.4629 32.0557 26.4809 31.66C27.533 31.2513 28.4243 30.7033 29.3133 29.8133C30.2033 28.924 30.75 28.0313 31.16 26.9793C31.5533 25.9617 31.8233 24.7987 31.9033 23.096C31.98 21.3893 32 20.8453 32 16.5C32 12.1547 31.98 11.6093 31.9033 9.90267C31.8233 8.19933 31.5533 7.03667 31.16 6.01933C30.75 4.967 30.2033 4.07433 29.3133 3.185C28.4233 2.295 27.5333 1.74833 26.4799 1.34C25.4599 0.944333 24.2966 0.674667 22.5932 0.596667C20.8866 0.519 20.3432 0.5 15.9965 0.5H16.0015ZM14.5662 3.38333C14.9922 3.38267 15.4675 3.38333 16.0015 3.38333C20.2735 3.38333 20.7799 3.39867 22.4669 3.47533C24.0269 3.54667 24.8736 3.80733 25.4376 4.02633C26.1843 4.31633 26.7166 4.663 27.2763 5.223C27.8363 5.783 28.183 6.31633 28.4736 7.063C28.6926 7.62633 28.9536 8.473 29.0246 10.033C29.1013 11.7197 29.118 12.2263 29.118 16.4963C29.118 20.7663 29.1013 21.273 29.0246 22.9597C28.9533 24.5197 28.6926 25.3663 28.4736 25.9297C28.1836 26.6763 27.8363 27.208 27.2763 27.7677C26.7163 28.3277 26.1846 28.6743 25.4376 28.9643C24.8743 29.1843 24.0269 29.4443 22.4669 29.5157C20.7802 29.5923 20.2735 29.609 16.0015 29.609C11.7291 29.609 11.2228 29.5923 9.5361 29.5157C7.97608 29.4437 7.12941 29.183 6.56507 28.964C5.81839 28.674 5.28505 28.3273 4.72505 27.7673C4.16504 27.2073 3.81837 26.6753 3.5277 25.9283C3.3087 25.365 3.0477 24.5183 2.9767 22.9583C2.90003 21.2717 2.8847 20.765 2.8847 16.4923C2.8847 12.2197 2.90003 11.7157 2.9767 10.029C3.04803 8.469 3.3087 7.62233 3.5277 7.05833C3.81771 6.31167 4.16504 5.77833 4.72505 5.21833C5.28505 4.65833 5.81839 4.31167 6.56507 4.021C7.12907 3.801 7.97608 3.541 9.5361 3.46933C11.0121 3.40267 11.5841 3.38267 14.5662 3.37933V3.38333ZM24.5423 6.04C23.4822 6.04 22.6222 6.899 22.6222 7.95933C22.6222 9.01933 23.4822 9.87933 24.5423 9.87933C25.6023 9.87933 26.4623 9.01933 26.4623 7.95933C26.4623 6.89933 25.6023 6.03933 24.5423 6.03933V6.04ZM16.0015 8.28333C11.4638 8.28333 7.78475 11.9623 7.78475 16.5C7.78475 21.0377 11.4638 24.715 16.0015 24.715C20.5392 24.715 24.2169 21.0377 24.2169 16.5C24.2169 11.9623 20.5392 8.28333 16.0015 8.28333ZM16.0015 11.1667C18.9469 11.1667 21.3349 13.5543 21.3349 16.5C21.3349 19.4453 18.9469 21.8333 16.0015 21.8333C13.0558 21.8333 10.6681 19.4453 10.6681 16.5C10.6681 13.5543 13.0558 11.1667 16.0015 11.1667Z" fill="white"/>
</svg>
