<svg width="32" height="32" viewBox="0 0 32 32" fill="none" xmlns="http://www.w3.org/2000/svg">
<path d="M26.5 13.6364H28H26.5ZM16 29L15.1605 30.2431L16 30.81L16.8395 30.2431L16 29ZM5.5 13.6364H4H5.5ZM16 3V4.5V3ZM25 13.6364C25 17.1771 22.7183 20.6544 20.1545 23.3959C18.902 24.735 17.6447 25.8323 16.6989 26.5953C16.2271 26.9758 15.8359 27.2707 15.5655 27.4685C15.4304 27.5674 15.3257 27.6418 15.2564 27.6904C15.2218 27.7147 15.1961 27.7325 15.1799 27.7436C15.1718 27.7492 15.1661 27.7531 15.1628 27.7553C15.1612 27.7565 15.1602 27.7571 15.1598 27.7574C15.1596 27.7575 15.1596 27.7576 15.1597 27.7575C15.1597 27.7574 15.1599 27.7573 15.16 27.7573C15.1602 27.7571 15.1605 27.7569 16 29C16.8395 30.2431 16.8399 30.2428 16.8403 30.2426C16.8405 30.2424 16.8409 30.2421 16.8413 30.2419C16.842 30.2414 16.843 30.2407 16.844 30.24C16.8462 30.2385 16.849 30.2366 16.8524 30.2343C16.8593 30.2296 16.8686 30.2233 16.8804 30.2152C16.9039 30.199 16.9371 30.1759 16.9794 30.1463C17.064 30.0869 17.1849 30.001 17.3369 29.8898C17.6407 29.6675 18.0697 29.3438 18.5824 28.9303C19.6053 28.1052 20.973 26.9127 22.3456 25.445C25.0317 22.5728 28 18.3684 28 13.6364H25ZM16 29C16.8395 27.7569 16.8398 27.7571 16.84 27.7573C16.8401 27.7573 16.8403 27.7574 16.8403 27.7575C16.8404 27.7576 16.8404 27.7575 16.8402 27.7574C16.8398 27.7571 16.8388 27.7565 16.8372 27.7553C16.8339 27.7531 16.8282 27.7492 16.8201 27.7436C16.8039 27.7325 16.7782 27.7147 16.7436 27.6904C16.6743 27.6418 16.5696 27.5674 16.4345 27.4685C16.1641 27.2707 15.7729 26.9758 15.3011 26.5953C14.3553 25.8323 13.098 24.735 11.8455 23.3959C9.2817 20.6544 7 17.1771 7 13.6364H4C4 18.3684 6.9683 22.5728 9.65445 25.445C11.027 26.9127 12.3947 28.1052 13.4176 28.9303C13.9303 29.3438 14.3593 29.6675 14.6631 29.8898C14.8151 30.001 14.936 30.0869 15.0206 30.1463C15.0629 30.1759 15.0961 30.199 15.1196 30.2152C15.1314 30.2233 15.1407 30.2296 15.1476 30.2343C15.151 30.2366 15.1538 30.2385 15.156 30.24C15.157 30.2407 15.158 30.2414 15.1587 30.2419C15.1591 30.2421 15.1595 30.2424 15.1597 30.2426C15.1601 30.2428 15.1605 30.2431 16 29ZM7 13.6364C7 11.207 7.95285 8.88107 9.64286 7.16911L7.5079 5.06152C5.25964 7.33898 4 10.4238 4 13.6364H7ZM9.64286 7.16911C11.3322 5.45781 13.6193 4.5 16 4.5V1.5C12.8111 1.5 9.7568 2.78341 7.5079 5.06152L9.64286 7.16911ZM16 4.5C18.3807 4.5 20.6678 5.45781 22.3571 7.16911L24.4921 5.06152C22.2432 2.78341 19.1889 1.5 16 1.5V4.5ZM22.3571 7.16911C24.0471 8.88107 25 11.207 25 13.6364H28C28 10.4238 26.7404 7.33898 24.4921 5.06152L22.3571 7.16911ZM17.5 13.5C17.5 14.3284 16.8284 15 16 15V18C18.4853 18 20.5 15.9853 20.5 13.5H17.5ZM16 15C15.1716 15 14.5 14.3284 14.5 13.5H11.5C11.5 15.9853 13.5147 18 16 18V15ZM14.5 13.5C14.5 12.6716 15.1716 12 16 12V9C13.5147 9 11.5 11.0147 11.5 13.5H14.5ZM16 12C16.8284 12 17.5 12.6716 17.5 13.5H20.5C20.5 11.0147 18.4853 9 16 9V12Z" fill="#ffffff"/>
</svg>
