<svg width="64" height="64" viewBox="0 0 64 64" fill="none" xmlns="http://www.w3.org/2000/svg">
<g clip-path="url(#clip0_811_678)">
<path fill-rule="evenodd" clip-rule="evenodd" d="M32 61C48.0163 61 61 48.0163 61 32C61 15.9837 48.0163 3 32 3C15.9837 3 3 15.9837 3 32C3 48.0163 15.9837 61 32 61ZM32 64C49.6731 64 64 49.6731 64 32C64 14.3269 49.6731 0 32 0C14.3269 0 0 14.3269 0 32C0 49.6731 14.3269 64 32 64Z" fill="#228C50"/>
<path d="M27.1467 41.7273L18.28 33.0909C17.9067 32.7273 17.9067 32.0909 18.28 31.6364L19.68 30.2727C20.0533 29.9091 20.7067 29.9091 21.1733 30.2727L27.8933 36.8182L42.8267 22.2727C43.2 21.9091 43.8533 21.9091 44.32 22.2727L45.72 23.6364C46.0933 24 46.0933 24.6364 45.72 25.0909L28.64 41.7273C28.1733 42.0909 27.52 42.0909 27.1467 41.7273Z" fill="#228C50"/>
</g>
<defs>
<clipPath id="clip0_811_678">
<rect width="64" height="64" fill="white"/>
</clipPath>
</defs>
</svg>
