<svg width="81" height="80" viewBox="0 0 81 80" fill="none" xmlns="http://www.w3.org/2000/svg">
<path d="M40.5037 0C29.6403 0 28.277 0.0475008 24.0102 0.241667C19.7519 0.436667 16.8452 1.11083 14.3018 2.1C11.6709 3.12167 9.43926 4.48833 7.2159 6.7125C4.99088 8.93583 3.6242 11.1675 2.59919 13.7975C1.60751 16.3417 0.932504 19.2492 0.740835 23.5058C0.55 27.7725 0.5 29.1367 0.5 40C0.5 50.8633 0.548335 52.2225 0.74167 56.4892C0.937505 60.7475 1.61168 63.6542 2.60002 66.1975C3.62253 68.8283 4.98921 71.06 7.2134 73.2833C9.43593 75.5083 11.6676 76.8783 14.2968 77.9C16.8418 78.8892 19.7494 79.5633 24.0069 79.7583C28.2736 79.9525 29.6361 80 40.4988 80C51.363 80 52.7222 79.9525 56.9889 79.7583C61.2473 79.5633 64.1573 78.8892 66.7024 77.9C69.3324 76.8783 71.5607 75.5083 73.7833 73.2833C76.0083 71.06 77.375 68.8283 78.4 66.1983C79.3833 63.6542 80.0583 60.7467 80.2583 56.49C80.45 52.2233 80.5 50.8633 80.5 40C80.5 29.1367 80.45 27.7733 80.2583 23.5067C80.0583 19.2483 79.3833 16.3417 78.4 13.7983C77.375 11.1675 76.0083 8.93583 73.7833 6.7125C71.5582 4.4875 69.3332 3.12083 66.6999 2.1C64.1498 1.11083 61.2415 0.436667 56.9831 0.241667C52.7164 0.0475008 51.358 0 40.4912 0H40.5037ZM36.9154 7.20833C37.9804 7.20667 39.1687 7.20833 40.5037 7.20833C51.1839 7.20833 52.4497 7.24667 56.6673 7.43833C60.5673 7.61667 62.684 8.26833 64.094 8.81583C65.9607 9.54083 67.2915 10.4075 68.6907 11.8075C70.0907 13.2075 70.9574 14.5408 71.6841 16.4075C72.2316 17.8158 72.8841 19.9325 73.0616 23.8325C73.2533 28.0492 73.2949 29.3158 73.2949 39.9908C73.2949 50.6658 73.2533 51.9325 73.0616 56.1492C72.8833 60.0492 72.2316 62.1658 71.6841 63.5742C70.9591 65.4408 70.0907 66.77 68.6907 68.1692C67.2907 69.5692 65.9615 70.4358 64.094 71.1608C62.6856 71.7108 60.5673 72.3608 56.6673 72.5392C52.4505 72.7308 51.1839 72.7725 40.5037 72.7725C29.8228 72.7725 28.557 72.7308 24.3403 72.5392C20.4402 72.3592 18.3235 71.7075 16.9127 71.16C15.046 70.435 13.7126 69.5683 12.3126 68.1683C10.9126 66.7683 10.0459 65.4383 9.31926 63.5708C8.77175 62.1625 8.11925 60.0458 7.94174 56.1458C7.75008 51.9292 7.71174 50.6625 7.71174 39.9808C7.71174 29.2992 7.75008 28.0392 7.94174 23.8225C8.12008 19.9225 8.77175 17.8058 9.31926 16.3958C10.0443 14.5292 10.9126 13.1958 12.3126 11.7958C13.7126 10.3958 15.046 9.52917 16.9127 8.8025C18.3227 8.2525 20.4402 7.6025 24.3403 7.42333C28.0303 7.25667 29.4603 7.20667 36.9154 7.19833V7.20833ZM61.8556 13.85C59.2056 13.85 57.0556 15.9975 57.0556 18.6483C57.0556 21.2983 59.2056 23.4483 61.8556 23.4483C64.5057 23.4483 66.6557 21.2983 66.6557 18.6483C66.6557 15.9983 64.5057 13.8483 61.8556 13.8483V13.85ZM40.5037 19.4583C29.1595 19.4583 19.9619 28.6558 19.9619 40C19.9619 51.3442 29.1595 60.5375 40.5037 60.5375C51.848 60.5375 61.0423 51.3442 61.0423 40C61.0423 28.6558 51.848 19.4583 40.5037 19.4583ZM40.5037 26.6667C47.8672 26.6667 53.8372 32.6358 53.8372 40C53.8372 47.3633 47.8672 53.3333 40.5037 53.3333C33.1395 53.3333 27.1703 47.3633 27.1703 40C27.1703 32.6358 33.1395 26.6667 40.5037 26.6667Z" fill="white"/>
</svg>
