<svg width="179" height="44" viewBox="0 0 179 44" fill="none" xmlns="http://www.w3.org/2000/svg">
<g clip-path="url(#clip0_707_51)">
<g opacity="0.85">
<path d="M41.4223 16.959V0.0927734H25.4327L20.7111 5.07222L15.9889 0.0927734H0V16.959L4.72154 21.9357L0 26.9152V43.7787H15.9896L20.7111 38.7992L25.4327 43.7787H41.4223V26.9145L36.7007 21.935L41.4223 16.959ZM87.1992 16.959V0.0927734H45.7776V43.7787H87.1992V26.9145L82.4777 21.935L87.1992 16.959ZM125.129 0.0927734H91.5518V43.7787H132.974V8.36883L125.129 0.0934504V0.0927734ZM170.859 0.0927734H137.285V16.959L142.007 21.9357L137.285 26.9152V43.7787H153.276L157.997 38.7992L162.718 43.7787H178.708V8.36883L170.859 0.0934504V0.0927734Z" fill="#0A5C2E"/>
<path d="M67.3751 7.29883C66.8214 7.29974 66.2691 7.3546 65.7261 7.46264V9.94154C66.2631 9.79229 66.8177 9.71512 67.3751 9.71206C69.1452 9.71206 70.8423 10.454 72.0939 11.774C73.3455 13.094 74.0482 14.8838 74.0482 16.75C74.0482 18.617 73.3455 20.4074 72.0939 21.7268C70.8423 23.0468 69.1452 23.788 67.3757 23.788C66.8182 23.7865 66.2634 23.7104 65.7261 23.5619V26.0428C66.9513 26.2865 68.2124 26.2574 69.4268 25.9575C70.6504 25.6532 71.7939 25.0887 72.7796 24.3025C73.7846 23.499 74.6127 22.4965 75.2118 21.3578C75.8214 20.2 76.194 18.9322 76.3077 17.6287C76.4232 16.3205 76.2782 15.0024 75.8813 13.7506C75.49 12.5133 74.8516 11.3683 74.0048 10.3849C73.175 9.42122 72.1502 8.6446 70.998 8.1064C69.8635 7.57743 68.6268 7.30362 67.3751 7.30424V7.29883ZM113.828 32.4472C112.245 32.4413 110.704 31.9457 109.415 31.0284C108.109 30.1057 107.092 28.7959 106.492 27.2633C105.892 25.7233 105.737 24.0453 106.045 22.4213C106.353 20.7967 107.11 19.3034 108.223 18.133C109.335 16.9619 110.752 16.1645 112.292 15.8423C113.835 15.5198 115.44 15.6874 116.883 16.3215C118.335 16.9565 119.575 18.0308 120.449 19.4083C121.326 20.8027 121.79 22.4173 121.787 24.0649C121.785 26.2892 120.945 28.4222 119.453 29.9934C117.959 31.5652 115.937 32.4479 113.828 32.4472ZM113.828 18.0951C112.7 18.0974 111.601 18.4488 110.682 19.101C109.74 19.7709 109.016 20.7022 108.598 21.7796C108.169 22.8765 108.057 24.0718 108.275 25.2292C108.488 26.3755 109.026 27.4364 109.825 28.2855C110.602 29.1124 111.613 29.6825 112.723 29.9196C113.822 30.1502 114.965 30.0313 115.993 29.5798C117.04 29.117 117.925 28.3513 118.534 27.3811C119.159 26.388 119.49 25.2378 119.487 24.0642C119.486 22.4815 118.89 20.9639 117.828 19.8449C116.767 18.726 115.328 18.0964 113.828 18.0951Z" fill="white"/>
<path d="M112.255 38.3063C109.185 38.3063 106.184 37.3457 103.632 35.5465C101.079 33.7472 99.0899 31.1898 97.9154 28.1991C96.7396 25.1915 96.434 21.9137 97.0334 18.7405C97.6318 15.565 99.1109 12.6482 101.282 10.3588C103.453 8.06947 106.219 6.51052 109.23 5.87962C112.243 5.24804 115.379 5.57369 118.198 6.81107C121.034 8.04984 123.458 10.1483 125.164 12.8404C126.869 15.5325 127.78 18.6978 127.78 21.9356C127.775 26.2767 126.138 30.4377 123.228 33.5076C120.317 36.5767 116.371 38.3029 112.255 38.3063ZM112.255 7.97808C109.637 7.97808 107.078 8.79648 104.902 10.3304C102.726 11.8636 101.029 14.044 100.027 16.594C99.0249 19.1584 98.764 21.9532 99.2747 24.6588C99.7858 27.3665 101.046 29.8535 102.896 31.8051C104.748 33.7573 107.105 35.0868 109.673 35.6257C112.24 36.1645 114.901 35.8869 117.319 34.8309C119.737 33.7749 121.805 31.9858 123.259 29.6904C124.713 27.3956 125.489 24.6961 125.489 21.9356C125.486 18.2355 124.09 14.6871 121.609 12.0701C119.128 9.45378 115.763 7.98147 112.255 7.97808ZM151.218 22.7567C150.467 21.9072 149.93 20.8913 149.65 19.7931C149.364 18.6825 149.34 17.5205 149.58 16.399C149.814 15.2881 150.309 14.2488 151.023 13.3664C151.721 12.5028 152.622 11.8263 153.646 11.3979C154.653 10.9779 155.752 10.8247 156.836 10.9532C157.919 11.0818 158.954 11.4879 159.853 12.1357C160.762 12.7944 161.497 13.6642 161.995 14.6701C162.504 15.6942 162.767 16.8227 162.763 17.9661H165.053C165.056 16.4283 164.699 14.9112 164.012 13.5356C163.339 12.1848 162.348 11.0182 161.123 10.1368C159.925 9.27443 158.527 8.73224 157.061 8.56159C155.603 8.39463 154.126 8.6068 152.773 9.17759C151.399 9.76017 150.191 10.6758 149.259 11.842C148.304 13.0346 147.646 14.4365 147.338 15.9326C147.025 17.4426 147.067 19.0047 147.46 20.4957C147.846 21.9701 148.578 23.3313 149.594 24.4666L151.218 22.7567Z" fill="white"/>
<path d="M158.039 19.9674L145.138 33.5735L146.756 35.28L158.039 23.3811L169.322 35.28L170.939 33.5742L158.039 19.9674ZM70.859 31.6084C70.1544 32.5131 69.2296 33.2221 68.173 33.6676C67.1332 34.1037 65.9962 34.2556 64.8784 34.1076C63.7543 33.9547 62.69 33.5096 61.7916 32.8167C60.8723 32.1075 60.145 31.1794 59.6763 30.1171C59.1966 29.0368 58.9839 27.8569 59.0562 26.677C59.1279 25.4931 59.4813 24.3484 60.0851 23.3472C60.6777 22.3571 61.5114 21.5331 62.5085 20.9523C63.4856 20.385 64.5954 20.0861 65.7252 20.0858V17.6712C64.2184 17.6737 62.7387 18.0719 61.4342 18.8261C60.1037 19.5978 58.9886 20.6919 58.1918 22.0076C57.3764 23.3511 56.8959 24.8708 56.7905 26.4387C56.681 28.0114 56.9486 29.5874 57.571 31.0357C58.1807 32.46 59.1335 33.7112 60.3444 34.6776C61.5284 35.6208 62.9374 36.2399 64.433 36.4741C65.9168 36.7023 67.4304 36.5351 68.8371 35.9867C70.2582 35.427 71.5129 34.5137 72.4823 33.3332L70.859 31.6084ZM30.9842 23.0047V20.5888H21.5655V20.4053L28.5561 10.3639L26.7088 8.93555L21.5729 16.316V11.1423H19.2849L19.268 19.6174L15.5043 25.0267C14.2608 21.0552 12.4067 15.1314 12.2348 14.6786L10.0896 15.5565C10.2494 15.9904 12.2355 22.3427 13.8317 27.4149L9.78027 33.2364L11.6269 34.664L14.9256 29.9208L22.4042 32.8289L23.1982 30.5666L16.4128 27.9232C16.4128 27.8975 16.3958 27.8671 16.3864 27.842L19.752 23.0088L30.9842 23.0047Z" fill="white"/>
</g>
</g>
<defs>
<clipPath id="clip0_707_51">
<rect width="178.708" height="44" fill="white"/>
</clipPath>
</defs>
</svg>
