<svg width="1920" height="866" viewBox="0 0 1920 866" fill="none" xmlns="http://www.w3.org/2000/svg">
<path d="M1920 248.003V866H0V182.493C226.007 101.49 510.75 73.2021 812.065 115.563C910.287 129.371 1004.74 149.91 1094.21 176.179C1167.63 168.971 1244.01 165.166 1322.44 165.166C1545.13 165.166 1751.35 195.839 1920 248.003Z" fill="#04060A"/>
<path d="M1014.02 121.011L997.839 150.163C997.732 149.816 997.585 149.468 997.395 149.125L987.116 130.482C986.806 129.919 987.11 129.214 987.735 129.059C988.186 128.947 988.791 128.83 989.582 128.736L991.267 128.534C994.153 128.187 995.645 124.911 994.008 122.514L981.891 102.037C981.554 101.469 981.866 100.736 982.512 100.585C982.781 100.522 983.089 100.46 983.435 100.409L983.859 100.346C986.657 99.9267 988.076 96.7562 986.523 94.3968L962.082 57.2715C960.551 54.9456 957.134 54.9456 955.603 57.2715L931.162 94.3968C929.609 96.7562 931.029 99.9267 933.827 100.346L934.251 100.409C934.596 100.462 934.905 100.522 935.174 100.585C935.819 100.736 936.132 101.467 935.794 102.037L923.678 122.514C922.04 124.913 923.532 128.189 926.419 128.534L928.103 128.736C928.896 128.832 929.499 128.947 929.951 129.059C930.575 129.214 930.879 129.919 930.569 130.482L927.699 135.688C984.661 147.068 1040.09 160.718 1093.73 176.421C1167.14 169.235 1243.52 165.441 1321.94 165.441C1424.47 165.441 1523.51 171.926 1617 184L1607.34 166.523C1607.04 165.981 1607.33 165.301 1607.93 165.152C1608.37 165.045 1608.96 164.931 1609.72 164.841L1611.35 164.646C1614.14 164.312 1615.58 161.154 1614 158.844L1602.29 139.107C1601.96 138.559 1602.26 137.853 1602.89 137.707C1603.01 137.679 1603.14 137.651 1603.27 137.624C1603.43 137.593 1603.6 137.564 1603.78 137.537L1604.19 137.477C1606.89 137.073 1608.26 134.017 1606.76 131.743L1583.14 95.9593C1581.66 93.7175 1578.35 93.7175 1576.87 95.9593L1553.25 131.743C1551.75 134.017 1553.12 137.073 1555.82 137.477L1556.23 137.537C1556.57 137.588 1556.87 137.647 1557.13 137.707C1557.75 137.853 1558.05 138.557 1557.72 139.107L1546.2 158.534H1545.06L1532.84 136.506C1532.37 135.649 1532.83 134.574 1533.79 134.338C1534.48 134.168 1535.41 133.989 1536.62 133.845L1539.21 133.538C1543.63 133.009 1545.92 128.015 1543.41 124.363L1524.83 93.1538C1524.31 92.2877 1524.79 91.1708 1525.78 90.9408C1526.19 90.8452 1526.67 90.7497 1527.2 90.6721L1527.85 90.5765C1532.14 89.9374 1534.31 85.1052 1531.93 81.5094L1494.46 24.9267C1492.11 21.3818 1486.87 21.3818 1484.52 24.9267L1447.05 81.5094C1444.66 85.1052 1446.84 89.9374 1451.13 90.5765L1451.78 90.6721C1452.31 90.7526 1452.78 90.8452 1453.2 90.9408C1454.19 91.1708 1454.67 92.2848 1454.15 93.1538L1448.93 101.928L1425.86 66.9906C1424.38 64.7487 1421.07 64.7487 1419.59 66.9906L1395.97 102.774C1394.47 105.048 1395.84 108.104 1398.54 108.508L1398.95 108.569C1399.15 108.598 1399.33 108.63 1399.5 108.663C1399.62 108.688 1399.74 108.713 1399.85 108.739C1400.47 108.884 1400.77 109.588 1400.45 110.138L1388.73 129.875C1387.15 132.187 1388.59 135.345 1391.38 135.677L1393.01 135.872C1393.78 135.964 1394.36 136.076 1394.8 136.183C1395.4 136.333 1395.7 137.013 1395.4 137.555L1385.46 155.524H1385.46C1384.85 156.597 1384.64 157.634 1384.77 158.534H1374.91C1374.95 158.035 1374.84 157.488 1374.55 156.963L1368.81 146.631C1368.64 146.319 1368.81 145.928 1369.16 145.842C1369.28 145.812 1369.43 145.78 1369.6 145.75C1369.77 145.719 1369.96 145.69 1370.19 145.663L1371.13 145.551C1372.74 145.359 1373.57 143.543 1372.66 142.215L1365.89 130.866C1365.7 130.551 1365.88 130.145 1366.24 130.062C1366.39 130.027 1366.56 129.992 1366.75 129.964L1366.99 129.929C1368.55 129.697 1369.35 127.94 1368.48 126.632L1354.83 106.057C1353.98 104.767 1352.07 104.767 1351.22 106.057L1343.75 117.31L1334.51 101.766C1334.15 101.154 1334.48 100.363 1335.18 100.201C1335.47 100.133 1335.81 100.065 1336.18 100.011L1336.64 99.9429C1339.67 99.4907 1341.21 96.072 1339.53 93.5279L1313.05 53.4952C1311.39 50.987 1307.69 50.987 1306.03 53.4952L1279.55 93.5279C1277.87 96.072 1279.41 99.4907 1282.44 99.9429L1282.9 100.011C1283.27 100.068 1283.61 100.133 1283.9 100.201C1284.6 100.363 1284.94 101.152 1284.57 101.766L1271.45 123.847C1269.67 126.434 1271.29 129.966 1274.42 130.338L1276.24 130.556C1276.63 130.603 1276.98 130.655 1277.29 130.708C1277.66 130.772 1277.98 130.839 1278.24 130.905C1278.92 131.072 1279.25 131.832 1278.91 132.439L1267.78 152.542H1267.77C1266.34 155.067 1266.91 157.414 1268.7 158.534H1259.72C1261.13 157.583 1261.52 155.586 1260.5 153.764L1251.6 137.704C1251.33 137.22 1251.59 136.612 1252.13 136.479C1252.52 136.383 1253.05 136.281 1253.73 136.2L1255.19 136.026C1257.69 135.728 1258.99 132.905 1257.57 130.841L1247.07 113.201C1246.77 112.711 1247.05 112.08 1247.61 111.95C1247.84 111.896 1248.11 111.842 1248.41 111.798L1248.77 111.744C1251.2 111.383 1252.43 108.652 1251.08 106.619L1229.9 74.6376C1228.57 72.6339 1225.61 72.6339 1224.28 74.6376L1205.95 102.314L1198.92 90.5189C1198.47 89.7625 1198.89 88.7867 1199.75 88.5859C1200.11 88.5024 1200.53 88.419 1200.99 88.3511L1201.56 88.2676C1205.31 87.7093 1207.22 83.4884 1205.14 80.3474L1172.34 30.9214C1170.29 27.8248 1165.71 27.8248 1163.65 30.9214L1130.86 80.3474C1128.78 83.4884 1130.68 87.7093 1134.43 88.2676L1135 88.3511C1135.47 88.4215 1135.88 88.5024 1136.24 88.5859C1137.11 88.7867 1137.53 89.7598 1137.07 90.5189L1120.82 117.781C1118.62 120.974 1120.62 125.336 1124.49 125.795L1126.75 126.064C1127.45 126.147 1128.03 126.24 1128.52 126.337C1128.78 126.389 1129.02 126.442 1129.23 126.494C1130.07 126.7 1130.48 127.639 1130.06 128.388L1120.02 146.456L1105.9 121.011C1105.4 120.103 1105.9 118.964 1106.91 118.714C1107.64 118.534 1108.63 118.344 1109.91 118.192L1112.65 117.867C1117.34 117.307 1119.76 112.017 1117.1 108.148L1097.41 75.0886C1096.87 74.1712 1097.37 72.9879 1098.42 72.7444C1098.86 72.6431 1099.36 72.5419 1099.92 72.4597L1100.61 72.3585C1105.16 71.6814 1107.46 66.5627 1104.94 62.7538L1065.22 2.81645C1062.74 -0.938816 1057.18 -0.938816 1054.7 2.81645L1014.98 62.7538C1012.46 66.5627 1014.76 71.6814 1019.31 72.3585L1020 72.4597C1020.56 72.5451 1021.06 72.6431 1021.5 72.7444C1022.55 72.9879 1023.05 74.168 1022.51 75.0886L1002.82 108.148C1000.16 112.02 1002.58 117.31 1007.27 117.867L1010.01 118.192C1011.3 118.347 1012.28 118.534 1013.01 118.714C1014.03 118.964 1014.52 120.103 1014.02 121.011Z" fill="white"/>
<path d="M1014.02 121.011L997.839 150.163C997.732 149.816 997.585 149.468 997.395 149.125L987.116 130.482C986.806 129.919 987.11 129.214 987.735 129.059C988.186 128.947 988.791 128.83 989.582 128.736L991.267 128.534C994.153 128.187 995.645 124.911 994.008 122.514L981.891 102.037C981.554 101.469 981.866 100.736 982.512 100.585C982.781 100.522 983.089 100.46 983.435 100.409L983.859 100.346C986.657 99.9267 988.076 96.7562 986.523 94.3968L962.082 57.2715C960.551 54.9456 957.134 54.9456 955.603 57.2715L931.162 94.3968C929.609 96.7562 931.029 99.9267 933.827 100.346L934.251 100.409C934.596 100.462 934.905 100.522 935.174 100.585C935.819 100.736 936.132 101.467 935.794 102.037L923.678 122.514C922.04 124.913 923.532 128.189 926.419 128.534L928.103 128.736C928.896 128.832 929.499 128.947 929.951 129.059C930.575 129.214 930.879 129.919 930.569 130.482L927.699 135.688C984.661 147.068 1040.09 160.718 1093.73 176.421C1167.14 169.235 1243.52 165.441 1321.94 165.441C1424.47 165.441 1523.51 171.926 1617 184L1607.34 166.523C1607.04 165.981 1607.33 165.301 1607.93 165.152C1608.37 165.045 1608.96 164.931 1609.72 164.841L1611.35 164.646C1614.14 164.312 1615.58 161.154 1614 158.844L1602.29 139.107C1601.96 138.559 1602.26 137.853 1602.89 137.707C1603.01 137.679 1603.14 137.651 1603.27 137.624C1603.43 137.593 1603.6 137.564 1603.78 137.537L1604.19 137.477C1606.89 137.073 1608.26 134.017 1606.76 131.743L1583.14 95.9593C1581.66 93.7175 1578.35 93.7175 1576.87 95.9593L1553.25 131.743C1551.75 134.017 1553.12 137.073 1555.82 137.477L1556.23 137.537C1556.57 137.588 1556.87 137.647 1557.13 137.707C1557.75 137.853 1558.05 138.557 1557.72 139.107L1546.2 158.534H1545.06L1532.84 136.506C1532.37 135.649 1532.83 134.574 1533.79 134.338C1534.48 134.168 1535.41 133.989 1536.62 133.845L1539.21 133.538C1543.63 133.009 1545.92 128.015 1543.41 124.363L1524.83 93.1538C1524.31 92.2877 1524.79 91.1708 1525.78 90.9408C1526.19 90.8452 1526.67 90.7497 1527.2 90.6721L1527.85 90.5765C1532.14 89.9374 1534.31 85.1052 1531.93 81.5094L1494.46 24.9267C1492.11 21.3818 1486.87 21.3818 1484.52 24.9267L1447.05 81.5094C1444.66 85.1052 1446.84 89.9374 1451.13 90.5765L1451.78 90.6721C1452.31 90.7526 1452.78 90.8452 1453.2 90.9408C1454.19 91.1708 1454.67 92.2848 1454.15 93.1538L1448.93 101.928L1425.86 66.9906C1424.38 64.7487 1421.07 64.7487 1419.59 66.9906L1395.97 102.774C1394.47 105.048 1395.84 108.104 1398.54 108.508L1398.95 108.569C1399.15 108.598 1399.33 108.63 1399.5 108.663C1399.62 108.688 1399.74 108.713 1399.85 108.739C1400.47 108.884 1400.77 109.588 1400.45 110.138L1388.73 129.875C1387.15 132.187 1388.59 135.345 1391.38 135.677L1393.01 135.872C1393.78 135.964 1394.36 136.076 1394.8 136.183C1395.4 136.333 1395.7 137.013 1395.4 137.555L1385.46 155.524H1385.46C1384.85 156.597 1384.64 157.634 1384.77 158.534H1374.91C1374.95 158.035 1374.84 157.488 1374.55 156.963L1368.81 146.631C1368.64 146.319 1368.81 145.928 1369.16 145.842C1369.28 145.812 1369.43 145.78 1369.6 145.75C1369.77 145.719 1369.96 145.69 1370.19 145.663L1371.13 145.551C1372.74 145.359 1373.57 143.543 1372.66 142.215L1365.89 130.866C1365.7 130.551 1365.88 130.145 1366.24 130.062C1366.39 130.027 1366.56 129.992 1366.75 129.964L1366.99 129.929C1368.55 129.697 1369.35 127.94 1368.48 126.632L1354.83 106.057C1353.98 104.767 1352.07 104.767 1351.22 106.057L1343.75 117.31L1334.51 101.766C1334.15 101.154 1334.48 100.363 1335.18 100.201C1335.47 100.133 1335.81 100.065 1336.18 100.011L1336.64 99.9429C1339.67 99.4907 1341.21 96.072 1339.53 93.5279L1313.05 53.4952C1311.39 50.987 1307.69 50.987 1306.03 53.4952L1279.55 93.5279C1277.87 96.072 1279.41 99.4907 1282.44 99.9429L1282.9 100.011C1283.27 100.068 1283.61 100.133 1283.9 100.201C1284.6 100.363 1284.94 101.152 1284.57 101.766L1271.45 123.847C1269.67 126.434 1271.29 129.966 1274.42 130.338L1276.24 130.556C1276.63 130.603 1276.98 130.655 1277.29 130.708C1277.66 130.772 1277.98 130.839 1278.24 130.905C1278.92 131.072 1279.25 131.832 1278.91 132.439L1267.78 152.542H1267.77C1266.34 155.067 1266.91 157.414 1268.7 158.534H1259.72C1261.13 157.583 1261.52 155.586 1260.5 153.764L1251.6 137.704C1251.33 137.22 1251.59 136.612 1252.13 136.479C1252.52 136.383 1253.05 136.281 1253.73 136.2L1255.19 136.026C1257.69 135.728 1258.99 132.905 1257.57 130.841L1247.07 113.201C1246.77 112.711 1247.05 112.08 1247.61 111.95C1247.84 111.896 1248.11 111.842 1248.41 111.798L1248.77 111.744C1251.2 111.383 1252.43 108.652 1251.08 106.619L1229.9 74.6376C1228.57 72.6339 1225.61 72.6339 1224.28 74.6376L1205.95 102.314L1198.92 90.5189C1198.47 89.7625 1198.89 88.7867 1199.75 88.5859C1200.11 88.5024 1200.53 88.419 1200.99 88.3511L1201.56 88.2676C1205.31 87.7093 1207.22 83.4884 1205.14 80.3474L1172.34 30.9214C1170.29 27.8248 1165.71 27.8248 1163.65 30.9214L1130.86 80.3474C1128.78 83.4884 1130.68 87.7093 1134.43 88.2676L1135 88.3511C1135.47 88.4215 1135.88 88.5024 1136.24 88.5859C1137.11 88.7867 1137.53 89.7598 1137.07 90.5189L1120.82 117.781C1118.62 120.974 1120.62 125.336 1124.49 125.795L1126.75 126.064C1127.45 126.147 1128.03 126.24 1128.52 126.337C1128.78 126.389 1129.02 126.442 1129.23 126.494C1130.07 126.7 1130.48 127.639 1130.06 128.388L1120.02 146.456L1105.9 121.011C1105.4 120.103 1105.9 118.964 1106.91 118.714C1107.64 118.534 1108.63 118.344 1109.91 118.192L1112.65 117.867C1117.34 117.307 1119.76 112.017 1117.1 108.148L1097.41 75.0886C1096.87 74.1712 1097.37 72.9879 1098.42 72.7444C1098.86 72.6431 1099.36 72.5419 1099.92 72.4597L1100.61 72.3585C1105.16 71.6814 1107.46 66.5627 1104.94 62.7538L1065.22 2.81645C1062.74 -0.938816 1057.18 -0.938816 1054.7 2.81645L1014.98 62.7538C1012.46 66.5627 1014.76 71.6814 1019.31 72.3585L1020 72.4597C1020.56 72.5451 1021.06 72.6431 1021.5 72.7444C1022.55 72.9879 1023.05 74.168 1022.51 75.0886L1002.82 108.148C1000.16 112.02 1002.58 117.31 1007.27 117.867L1010.01 118.192C1011.3 118.347 1012.28 118.534 1013.01 118.714C1014.03 118.964 1014.52 120.103 1014.02 121.011Z" fill="url(#paint0_linear_2721_650)"/>
<path d="M1014.02 121.011L997.839 150.163C997.732 149.816 997.585 149.468 997.395 149.125L987.116 130.482C986.806 129.919 987.11 129.214 987.735 129.059C988.186 128.947 988.791 128.83 989.582 128.736L991.267 128.534C994.153 128.187 995.645 124.911 994.008 122.514L981.891 102.037C981.554 101.469 981.866 100.736 982.512 100.585C982.781 100.522 983.089 100.46 983.435 100.409L983.859 100.346C986.657 99.9267 988.076 96.7562 986.523 94.3968L962.082 57.2715C960.551 54.9456 957.134 54.9456 955.603 57.2715L931.162 94.3968C929.609 96.7562 931.029 99.9267 933.827 100.346L934.251 100.409C934.596 100.462 934.905 100.522 935.174 100.585C935.819 100.736 936.132 101.467 935.794 102.037L923.678 122.514C922.04 124.913 923.532 128.189 926.419 128.534L928.103 128.736C928.896 128.832 929.499 128.947 929.951 129.059C930.575 129.214 930.879 129.919 930.569 130.482L927.699 135.688C984.661 147.068 1040.09 160.718 1093.73 176.421C1167.14 169.235 1243.52 165.441 1321.94 165.441C1424.47 165.441 1523.51 171.926 1617 184L1607.34 166.523C1607.04 165.981 1607.33 165.301 1607.93 165.152C1608.37 165.045 1608.96 164.931 1609.72 164.841L1611.35 164.646C1614.14 164.312 1615.58 161.154 1614 158.844L1602.29 139.107C1601.96 138.559 1602.26 137.853 1602.89 137.707C1603.01 137.679 1603.14 137.651 1603.27 137.624C1603.43 137.593 1603.6 137.564 1603.78 137.537L1604.19 137.477C1606.89 137.073 1608.26 134.017 1606.76 131.743L1583.14 95.9593C1581.66 93.7175 1578.35 93.7175 1576.87 95.9593L1553.25 131.743C1551.75 134.017 1553.12 137.073 1555.82 137.477L1556.23 137.537C1556.57 137.588 1556.87 137.647 1557.13 137.707C1557.75 137.853 1558.05 138.557 1557.72 139.107L1546.2 158.534H1545.06L1532.84 136.506C1532.37 135.649 1532.83 134.574 1533.79 134.338C1534.48 134.168 1535.41 133.989 1536.62 133.845L1539.21 133.538C1543.63 133.009 1545.92 128.015 1543.41 124.363L1524.83 93.1538C1524.31 92.2877 1524.79 91.1708 1525.78 90.9408C1526.19 90.8452 1526.67 90.7497 1527.2 90.6721L1527.85 90.5765C1532.14 89.9374 1534.31 85.1052 1531.93 81.5094L1494.46 24.9267C1492.11 21.3818 1486.87 21.3818 1484.52 24.9267L1447.05 81.5094C1444.66 85.1052 1446.84 89.9374 1451.13 90.5765L1451.78 90.6721C1452.31 90.7526 1452.78 90.8452 1453.2 90.9408C1454.19 91.1708 1454.67 92.2848 1454.15 93.1538L1448.93 101.928L1425.86 66.9906C1424.38 64.7487 1421.07 64.7487 1419.59 66.9906L1395.97 102.774C1394.47 105.048 1395.84 108.104 1398.54 108.508L1398.95 108.569C1399.15 108.598 1399.33 108.63 1399.5 108.663C1399.62 108.688 1399.74 108.713 1399.85 108.739C1400.47 108.884 1400.77 109.588 1400.45 110.138L1388.73 129.875C1387.15 132.187 1388.59 135.345 1391.38 135.677L1393.01 135.872C1393.78 135.964 1394.36 136.076 1394.8 136.183C1395.4 136.333 1395.7 137.013 1395.4 137.555L1385.46 155.524H1385.46C1384.85 156.597 1384.64 157.634 1384.77 158.534H1374.91C1374.95 158.035 1374.84 157.488 1374.55 156.963L1368.81 146.631C1368.64 146.319 1368.81 145.928 1369.16 145.842C1369.28 145.812 1369.43 145.78 1369.6 145.75C1369.77 145.719 1369.96 145.69 1370.19 145.663L1371.13 145.551C1372.74 145.359 1373.57 143.543 1372.66 142.215L1365.89 130.866C1365.7 130.551 1365.88 130.145 1366.24 130.062C1366.39 130.027 1366.56 129.992 1366.75 129.964L1366.99 129.929C1368.55 129.697 1369.35 127.94 1368.48 126.632L1354.83 106.057C1353.98 104.767 1352.07 104.767 1351.22 106.057L1343.75 117.31L1334.51 101.766C1334.15 101.154 1334.48 100.363 1335.18 100.201C1335.47 100.133 1335.81 100.065 1336.18 100.011L1336.64 99.9429C1339.67 99.4907 1341.21 96.072 1339.53 93.5279L1313.05 53.4952C1311.39 50.987 1307.69 50.987 1306.03 53.4952L1279.55 93.5279C1277.87 96.072 1279.41 99.4907 1282.44 99.9429L1282.9 100.011C1283.27 100.068 1283.61 100.133 1283.9 100.201C1284.6 100.363 1284.94 101.152 1284.57 101.766L1271.45 123.847C1269.67 126.434 1271.29 129.966 1274.42 130.338L1276.24 130.556C1276.63 130.603 1276.98 130.655 1277.29 130.708C1277.66 130.772 1277.98 130.839 1278.24 130.905C1278.92 131.072 1279.25 131.832 1278.91 132.439L1267.78 152.542H1267.77C1266.34 155.067 1266.91 157.414 1268.7 158.534H1259.72C1261.13 157.583 1261.52 155.586 1260.5 153.764L1251.6 137.704C1251.33 137.22 1251.59 136.612 1252.13 136.479C1252.52 136.383 1253.05 136.281 1253.73 136.2L1255.19 136.026C1257.69 135.728 1258.99 132.905 1257.57 130.841L1247.07 113.201C1246.77 112.711 1247.05 112.08 1247.61 111.95C1247.84 111.896 1248.11 111.842 1248.41 111.798L1248.77 111.744C1251.2 111.383 1252.43 108.652 1251.08 106.619L1229.9 74.6376C1228.57 72.6339 1225.61 72.6339 1224.28 74.6376L1205.95 102.314L1198.92 90.5189C1198.47 89.7625 1198.89 88.7867 1199.75 88.5859C1200.11 88.5024 1200.53 88.419 1200.99 88.3511L1201.56 88.2676C1205.31 87.7093 1207.22 83.4884 1205.14 80.3474L1172.34 30.9214C1170.29 27.8248 1165.71 27.8248 1163.65 30.9214L1130.86 80.3474C1128.78 83.4884 1130.68 87.7093 1134.43 88.2676L1135 88.3511C1135.47 88.4215 1135.88 88.5024 1136.24 88.5859C1137.11 88.7867 1137.53 89.7598 1137.07 90.5189L1120.82 117.781C1118.62 120.974 1120.62 125.336 1124.49 125.795L1126.75 126.064C1127.45 126.147 1128.03 126.24 1128.52 126.337C1128.78 126.389 1129.02 126.442 1129.23 126.494C1130.07 126.7 1130.48 127.639 1130.06 128.388L1120.02 146.456L1105.9 121.011C1105.4 120.103 1105.9 118.964 1106.91 118.714C1107.64 118.534 1108.63 118.344 1109.91 118.192L1112.65 117.867C1117.34 117.307 1119.76 112.017 1117.1 108.148L1097.41 75.0886C1096.87 74.1712 1097.37 72.9879 1098.42 72.7444C1098.86 72.6431 1099.36 72.5419 1099.92 72.4597L1100.61 72.3585C1105.16 71.6814 1107.46 66.5627 1104.94 62.7538L1065.22 2.81645C1062.74 -0.938816 1057.18 -0.938816 1054.7 2.81645L1014.98 62.7538C1012.46 66.5627 1014.76 71.6814 1019.31 72.3585L1020 72.4597C1020.56 72.5451 1021.06 72.6431 1021.5 72.7444C1022.55 72.9879 1023.05 74.168 1022.51 75.0886L1002.82 108.148C1000.16 112.02 1002.58 117.31 1007.27 117.867L1010.01 118.192C1011.3 118.347 1012.28 118.534 1013.01 118.714C1014.03 118.964 1014.52 120.103 1014.02 121.011Z" fill="url(#paint1_linear_2721_650)"/>
<defs>
<linearGradient id="paint0_linear_2721_650" x1="1316.4" y1="-4.46972" x2="1300.37" y2="351.572" gradientUnits="userSpaceOnUse">
<stop stop-color="#FF2B51" stop-opacity="0.15"/>
<stop offset="1" stop-color="#FF2B51" stop-opacity="0"/>
</linearGradient>
<linearGradient id="paint1_linear_2721_650" x1="1268.72" y1="-3.30547e-09" x2="1268.38" y2="298.098" gradientUnits="userSpaceOnUse">
<stop stop-color="#0A5C2E"/>
<stop offset="1" stop-color="#208B4F"/>
</linearGradient>
</defs>
</svg>
