<svg xmlns="http://www.w3.org/2000/svg" version="1.1" xmlns:xlink="http://www.w3.org/1999/xlink" xmlns:svgjs="http://svgjs.dev/svgjs" width="29" height="31"><svg width="29" height="31" viewBox="0 0 29 31" fill="none" xmlns="http://www.w3.org/2000/svg">
<g clip-path="url(#clip0_2732_573)">
<g opacity="0.85">
<path d="M28.9956 11.8063V0H17.8029L14.4978 3.48561L11.1922 0H0V11.8063L3.30508 15.2901L0 18.7757V30.5801H11.1927L14.4978 27.0945L17.8029 30.5801H28.9956V18.7752L25.6905 15.2896L28.9956 11.8063ZM61.0394 11.8063V0H32.0443V30.5801H61.0394V18.7752L57.7344 15.2896L61.0394 11.8063ZM87.59 0H64.0863V30.5801H93.0818V5.79324L87.59 0ZM119.602 0H96.0998V11.8063L99.4049 15.2901L96.0998 18.7757V30.5801H107.293L110.598 27.0945L113.903 30.5801H125.095V5.79324L119.602 0Z" fill="#0A5C2E"></path>
<path d="M111.627 13.9122L102.597 23.4365L103.73 24.6311L111.627 16.3018L119.526 24.6311L120.658 23.437L111.627 13.9122ZM50.6018 22.0609C50.1086 22.6943 49.4612 23.1905 48.7216 23.5024C47.9937 23.8077 47.1978 23.9139 46.4154 23.8104C45.6285 23.7033 44.8835 23.3917 44.2546 22.9068C43.6111 22.4103 43.102 21.7607 42.7739 21.0171C42.4381 20.2608 42.2893 19.4349 42.3398 18.609C42.39 17.7802 42.6374 16.9789 43.0601 16.2781C43.4749 15.585 44.0585 15.0083 44.7564 14.6017C45.4404 14.2046 46.2172 13.9953 47.0082 13.9951V12.3049C45.9534 12.3066 44.9176 12.5854 44.0044 13.1133C43.073 13.6535 42.2925 14.4194 41.7347 15.3404C41.164 16.2808 40.8276 17.3446 40.7539 18.4422C40.6772 19.543 40.8645 20.6462 41.3002 21.6601C41.7269 22.6571 42.3939 23.5329 43.2415 24.2094C44.0704 24.8696 45.0567 25.303 46.1036 25.4669C47.1422 25.6266 48.2018 25.5096 49.1864 25.1258C50.1813 24.734 51.0595 24.0946 51.7381 23.2683L50.6018 22.0609ZM22.6894 16.0384V14.3472H16.0963V14.2188L20.9897 7.18976L19.6966 6.18994L16.1015 11.3563V7.73468H14.5L14.4881 13.6672L11.8535 17.4537C10.9831 14.6737 9.6852 10.5271 9.56484 10.2101L8.06323 10.8246C8.17505 11.1284 9.56532 15.5749 10.6826 19.1255L7.84668 23.2005L9.13933 24.1999L11.4484 20.8796L16.6834 22.9153L17.2393 21.3317L12.4894 19.4813C12.4894 19.4633 12.4776 19.442 12.4709 19.4245L14.8269 16.0412L22.6894 16.0384Z" fill="white"></path>
</g>
</g>
<defs>
<clipPath id="SvgjsClipPath1001">
<rect width="29" height="31" fill="white"></rect>
</clipPath>
</defs>
</svg><style>@media (prefers-color-scheme: light) { :root { filter: none; } }
@media (prefers-color-scheme: dark) { :root { filter: none; } }
</style></svg>